<svg width="20" height="16" viewBox="0 0 20 16" fill="none" xmlns="http://www.w3.org/2000/svg">
<path d="M9.93803 0.000105494C9.78913 0.00277214 9.63792 0.0558215 9.49107 0.15162L0.279006 7.4243C0.042363 7.65927 -0.123995 8.1652 0.119917 8.47732C0.363825 8.78944 0.876806 8.83131 1.17294 8.56823L9.93803 1.65161L18.7031 8.56823C18.9993 8.83131 19.5231 8.79759 19.7562 8.47732C19.9607 8.19628 19.9104 7.65855 19.5971 7.4243L10.385 0.15162C10.2335 0.045167 10.0869 -0.00255873 9.93803 0.000105494ZM4.11989 7.09854L2.66535 8.25005V15.2727C2.66537 15.4656 2.742 15.6506 2.87839 15.787C3.01477 15.9233 3.19974 16 3.39262 16H7.99865C8.19153 16 8.3765 15.9233 8.51289 15.787C8.64927 15.6506 8.7259 15.4656 8.72592 15.2727V12.3637C8.72592 11.6796 9.25394 11.1515 9.93803 11.1515C10.6221 11.1515 11.1501 11.6796 11.1501 12.3637V15.2727C11.1502 15.4656 11.2268 15.6506 11.3632 15.787C11.4996 15.9233 11.6845 16 11.8774 16H16.4834C16.6763 16 16.8613 15.9233 16.9977 15.787C17.1341 15.6506 17.2107 15.4656 17.2107 15.2727V8.25005L15.7562 7.09854V14.5455H12.6047V12.3637C12.6047 10.8989 11.4028 9.69701 9.93803 9.69701C8.47329 9.69701 7.27138 10.8989 7.27138 12.3637V14.5455H4.11989V7.09854Z" fill="black"/>
</svg>
