<svg width="16" height="16" viewBox="0 0 16 16" fill="none" xmlns="http://www.w3.org/2000/svg">
<path d="M13.6639 2.33584C10.6305 -0.697549 5.79389 -0.764958 2.64254 2.06621L1.79993 1.2236C1.53029 0.953964 1.05843 1.08878 0.97417 1.45953L0.0135959 5.40294C-0.070665 5.75684 0.249526 6.09388 0.620274 6.00962L4.56368 5.04904C4.93443 4.96478 5.06925 4.49292 4.79961 4.22329L3.87275 3.29642C6.35002 1.13934 10.1081 1.20675 12.4674 3.56605C14.9109 6.00962 14.9109 10.0204 12.4505 12.4809L12.2146 12.6999C11.8607 13.0201 11.8438 13.5594 12.1472 13.9133C12.3157 14.0987 12.5516 14.1998 12.7875 14.1998C12.9898 14.1998 13.192 14.1324 13.3605 13.9807C13.4616 13.8964 13.5627 13.7953 13.647 13.6942C16.7815 10.5597 16.7815 5.47035 13.6639 2.33584Z" fill="white"/>
<path d="M9.95628 13.9976L9.63609 14.0987C9.18108 14.2167 8.91144 14.6885 9.02941 15.1604C9.13052 15.548 9.48442 15.8008 9.85517 15.8008C9.92258 15.8008 10.0068 15.7839 10.0742 15.7671C10.2091 15.7334 10.3439 15.6828 10.4787 15.6491C10.9337 15.4974 11.1696 15.0087 11.018 14.5706C10.9 14.0987 10.4113 13.8459 9.95628 13.9976Z" fill="white"/>
<path d="M7.05787 14.2503L6.72082 14.1997C6.24896 14.0986 5.79395 14.402 5.70969 14.8738C5.60858 15.3457 5.91192 15.8007 6.38378 15.885C6.5186 15.9187 6.67027 15.9355 6.80509 15.9524C6.83879 15.9524 6.88935 15.9692 6.9399 15.9692C7.36121 15.9692 7.73196 15.6659 7.78251 15.2277C7.84992 14.7559 7.52973 14.3177 7.05787 14.2503Z" fill="white"/>
<path d="M4.0917 12.9692C3.72096 12.6827 3.18169 12.7332 2.87835 13.104C2.59186 13.4747 2.64242 14.014 3.01316 14.3173C3.13113 14.4016 3.23224 14.4859 3.35021 14.5701C3.50188 14.6712 3.6704 14.7218 3.83892 14.7218C4.10856 14.7218 4.37819 14.6038 4.54671 14.351C4.81635 13.9634 4.73209 13.4242 4.34449 13.1545L4.0917 12.9692Z" fill="white"/>
<path d="M2.2717 10.6947C2.06947 10.2565 1.56391 10.0711 1.12575 10.2734C0.687594 10.4756 0.50222 10.9811 0.704447 11.4193C0.771855 11.5541 0.822412 11.6721 0.889821 11.8069C1.04149 12.0934 1.34483 12.2619 1.64817 12.2619C1.78299 12.2619 1.9178 12.2282 2.05262 12.1608C2.47393 11.9417 2.6256 11.4193 2.40652 10.998L2.2717 10.6947Z" fill="white"/>
<path d="M10.8162 8.7898L8.84449 7.52589V4.39138C8.84449 3.91952 8.45689 3.53192 7.98503 3.53192C7.51317 3.53192 7.12556 3.91952 7.12556 4.39138V7.99775C7.12556 8.28424 7.27723 8.57072 7.53002 8.72239L9.88932 10.2222C10.0241 10.3065 10.1927 10.3571 10.3443 10.3571C10.6308 10.3571 10.9005 10.2222 11.069 9.9526C11.3218 9.565 11.2038 9.04258 10.8162 8.7898Z" fill="white"/>
</svg>
