<svg width="20" height="20" viewBox="0 0 20 20" fill="none" xmlns="http://www.w3.org/2000/svg">
<path d="M17.181 10.812H12.8556C11.7287 10.812 10.8122 11.7284 10.8122 12.8553V17.1803C10.8122 18.3072 11.7287 19.2237 12.8556 19.2237H17.181C18.3079 19.2237 19.2244 18.3072 19.2244 17.1803V12.8553C19.2244 11.7284 18.3079 10.812 17.181 10.812ZM18.1738 17.1803C18.1738 17.7274 17.7281 18.1731 17.181 18.1731H12.8556C12.3085 18.1731 11.8628 17.7274 11.8628 17.1803V12.8553C11.8628 12.3083 12.3085 11.8626 12.8556 11.8626H17.181C17.7281 11.8626 18.1738 12.3083 18.1738 12.8553V17.1803Z" fill="white" stroke="white" stroke-width="0.4"/>
<path d="M7.1688 0.8H2.84337C1.71646 0.8 0.8 1.71646 0.8 2.84337V7.16858C0.8 8.29549 1.71646 9.21195 2.84337 9.21195H7.1688C8.29571 9.21195 9.21217 8.29549 9.21217 7.16858V2.84337C9.21217 1.71646 8.29571 0.8 7.1688 0.8ZM8.16157 7.16858C8.16157 7.71588 7.7161 8.16135 7.1688 8.16135H2.84337C2.29607 8.16135 1.8506 7.71588 1.8506 7.16858V2.84337C1.8506 2.29607 2.29607 1.8506 2.84337 1.8506H7.1688C7.7161 1.8506 8.16157 2.29607 8.16157 2.84337V7.16858Z" fill="white" stroke="white" stroke-width="0.4"/>
<path d="M17.181 0.8H12.8556C11.7286 0.8 10.8122 1.71646 10.8122 2.84337V7.16858C10.8122 8.29549 11.7286 9.21195 12.8556 9.21195H17.181C18.3079 9.21195 19.2243 8.29549 19.2243 7.16858V2.84337C19.2243 1.71646 18.3079 0.8 17.181 0.8ZM18.1737 7.16858C18.1737 7.71586 17.7281 8.16135 17.181 8.16135H12.8556C12.3084 8.16135 11.8628 7.71586 11.8628 7.16858V2.84337C11.8628 2.2961 12.3084 1.8506 12.8556 1.8506H17.181C17.7281 1.8506 18.1737 2.2961 18.1737 2.84337V7.16858Z" fill="white" stroke="white" stroke-width="0.4"/>
<path d="M7.1688 10.812H2.84337C1.71646 10.812 0.8 11.7284 0.8 12.8553V17.1803C0.8 18.3072 1.71646 19.2237 2.84337 19.2237H7.1688C8.29571 19.2237 9.21217 18.3072 9.21217 17.1803V12.8553C9.21217 11.7284 8.29571 10.812 7.1688 10.812ZM8.16157 17.1803C8.16157 17.7274 7.71607 18.1731 7.1688 18.1731H2.84337C2.2961 18.1731 1.8506 17.7274 1.8506 17.1803V12.8553C1.8506 12.3082 2.2961 11.8626 2.84337 11.8626H7.1688C7.71607 11.8626 8.16157 12.3082 8.16157 12.8553V17.1803Z" fill="white" stroke="white" stroke-width="0.4"/>
</svg>
