<svg width="19" height="17" viewBox="0 0 19 17" fill="none" xmlns="http://www.w3.org/2000/svg">
<path d="M10.3018 7.03248L10.3053 7.02894C11.1561 6.11432 12.3721 5.54358 13.7192 5.54358C16.2999 5.54358 18.3915 7.63513 18.3915 10.2159H10.7803" stroke="white" stroke-miterlimit="10" stroke-linecap="round" stroke-linejoin="round"/>
<path d="M15.7691 3.0535C15.7691 4.18545 14.8517 5.54462 13.7198 5.54462C13.4126 5.54462 13.1222 5.44363 12.8614 5.2753C12.6425 5.13643 12.4448 4.9513 12.2806 4.73669C12.2764 4.73248 12.2722 4.72827 12.268 4.72406C11.8935 4.24434 11.6663 3.62157 11.6663 3.0535C11.6663 1.92155 12.5836 1 13.7198 1C14.8517 1 15.7691 1.92155 15.7691 3.0535Z" stroke="white" stroke-miterlimit="10" stroke-linecap="round" stroke-linejoin="round"/>
<path d="M14.201 15.9999H1.00002C1.00002 12.3542 3.95478 9.39944 7.60052 9.39944C11.2463 9.39944 14.201 12.3542 14.201 15.9999Z" stroke="white" stroke-miterlimit="10" stroke-linecap="round" stroke-linejoin="round"/>
<path d="M10.5026 5.88214C10.5026 6.68471 10.1756 7.56457 9.65246 8.24231L9.63461 8.26016C9.39683 8.56337 9.11739 8.83087 8.80824 9.02111C8.43965 9.25893 8.02944 9.4016 7.60141 9.4016C6.00219 9.4016 4.70023 7.48136 4.70023 5.88214C4.70023 4.28292 6.00219 2.98096 7.60141 2.98096C9.20063 2.98096 10.5026 4.28292 10.5026 5.88214Z" stroke="white" stroke-miterlimit="10" stroke-linecap="round" stroke-linejoin="round"/>
</svg>
